Radio-Canada-Condensed-Bold.ufo
<glyph name="parenleft" format="1">
  <advance width="246"/>
  <unicode hex="0028"/>
  <outline>
    <contour>
      <point x="52" y="266" type="curve" smooth="yes"/>
      <point x="52" y="43"/>
      <point x="122" y="-123"/>
      <point x="217" y="-256" type="curve"/>
      <point x="295" y="-204" type="line"/>
      <point x="216" y="-63"/>
      <point x="180" y="97"/>
      <point x="180" y="266" type="curve" smooth="yes"/>
      <point x="180" y="432"/>
      <point x="216" y="598"/>
      <point x="295" y="741" type="curve"/>
      <point x="217" y="793" type="line"/>
      <point x="122" y="658"/>
      <point x="52" y="481"/>
    </contour>
  </outline>
</glyph>
<glyph name="comma" format="1">
  <advance width="244"/>
  <unicode hex="002C"/>
  <outline>
    <contour>
      <point x="51" y="-189" type="line"/>
      <point x="131" y="-189" type="line"/>
      <point x="177" y="-51" type="line" smooth="yes"/>
      <point x="196.0" y="4.694656488549619"/>
      <point x="211.0" y="40.847328244274806"/>
      <point x="211" y="77" type="curve" smooth="yes"/>
      <point x="211.0" y="130.79310344827587"/>
      <point x="170.5505617977528" y="167.0"/>
      <point x="121" y="167" type="curve" smooth="yes"/>
      <point x="72.5505617977528" y="167.0"/>
      <point x="33.0" y="126.0"/>
      <point x="33" y="78" type="curve" smooth="yes"/>
      <point x="33.0" y="38.69702706564919"/>
      <point x="60.82187711758045" y="5.47124915296782"/>
      <point x="92" y="-7" type="curve"/>
    </contour>
  </outline>
</glyph>
<glyph name="zero" format="1">
  <advance width="500"/>
  <unicode hex="0030"/>
  <outline>
    <contour>
      <point x="20.0" y="345" type="curve" smooth="yes"/>
      <point x="20.0" y="80"/>
      <point x="118.0" y="-12"/>
      <point x="250.0" y="-12" type="curve" smooth="yes"/>
      <point x="383.0" y="-12"/>
      <point x="480.0" y="80"/>
      <point x="480.0" y="345" type="curve" smooth="yes"/>
      <point x="480.0" y="610"/>
      <point x="383.0" y="702"/>
      <point x="250.0" y="702" type="curve" smooth="yes"/>
      <point x="118.0" y="702"/>
      <point x="20.0" y="610"/>
    </contour>
    <contour>
      <point x="160.0" y="345" type="curve" smooth="yes"/>
      <point x="160.0" y="512"/>
      <point x="199.8735632183908" y="567.0"/>
      <point x="250.0" y="567" type="curve" smooth="yes"/>
      <point x="300.1264367816092" y="567.0"/>
      <point x="340.0" y="512"/>
      <point x="340.0" y="345" type="curve" smooth="yes"/>
      <point x="340.0" y="178"/>
      <point x="300.1264367816092" y="123.0"/>
      <point x="250.0" y="123" type="curve" smooth="yes"/>
      <point x="199.8735632183908" y="123.0"/>
      <point x="160.0" y="178"/>
    </contour>
  </outline>
</glyph>
<glyph name="eight" format="1">
  <advance width="500"/>
  <unicode hex="0038"/>
  <outline>
    <contour>
      <point x="26.0" y="174" type="curve" smooth="yes"/>
      <point x="26.0" y="65.0"/>
      <point x="118.0" y="-12.0"/>
      <point x="247.0" y="-12" type="curve" smooth="yes"/>
      <point x="369.45814977973566" y="-12.0"/>
      <point x="473.0" y="59.0"/>
      <point x="473.0" y="191" type="curve" smooth="yes"/>
      <point x="473.0" y="284.0"/>
      <point x="418.4572864321608" y="357.4666666666667"/>
      <point x="272.0" y="418" type="curve" smooth="yes"/>
      <point x="203.55555555555554" y="446.38947368421054"/>
      <point x="184.0" y="477.0"/>
      <point x="184.0" y="511" type="curve" smooth="yes"/>
      <point x="184.0" y="547.0"/>
      <point x="209.62857142857143" y="582.0"/>
      <point x="253.0" y="582" type="curve" smooth="yes"/>
      <point x="296.6515151515151" y="582.0"/>
      <point x="320.0" y="550.0"/>
      <point x="320.0" y="511" type="curve" smooth="yes"/>
      <point x="320.0" y="468.0"/>
      <point x="291.8072289156627" y="430.8247422680413"/>
      <point x="242.0" y="410" type="curve"/>
      <point x="328.0" y="360" type="line"/>
      <point x="389.0" y="386.0"/>
      <point x="450.0" y="445.0"/>
      <point x="450.0" y="532" type="curve" smooth="yes"/>
      <point x="450.0" y="634.0"/>
      <point x="369.17525773195877" y="702.0"/>
      <point x="254.0" y="702" type="curve" smooth="yes"/>
      <point x="126.23444976076556" y="702.0"/>
      <point x="47.0" y="616.0"/>
      <point x="47.0" y="516" type="curve" smooth="yes"/>
      <point x="47.0" y="429.0"/>
      <point x="96.51578947368421" y="359.1588785046729"/>
      <point x="239.0" y="296" type="curve" smooth="yes"/>
      <point x="318.17525773195877" y="261.6666666666667"/>
      <point x="335.0" y="230.0"/>
      <point x="335.0" y="193" type="curve" smooth="yes"/>
      <point x="335.0" y="150.0"/>
      <point x="306.0" y="111.0"/>
      <point x="251.0" y="111" type="curve" smooth="yes"/>
      <point x="199.0" y="111.0"/>
      <point x="162.0" y="151.0"/>
      <point x="162.0" y="194" type="curve" smooth="yes"/>
      <point x="162.0" y="243.0"/>
      <point x="194.55405405405406" y="283.0"/>
      <point x="235.0" y="304" type="curve"/>
      <point x="167.0" y="368" type="line"/>
      <point x="102.0078125" y="339.68648648648644"/>
      <point x="26.0" y="272.0"/>
    </contour>
  </outline>
</glyph>
<glyph name="colon" format="1">
  <advance width="244"/>
  <unicode hex="003A"/>
  <outline>
    <contour>
      <point x="33" y="78" type="curve" smooth="yes"/>
      <point x="33" y="29"/>
      <point x="73" y="-12"/>
      <point x="122" y="-12" type="curve" smooth="yes"/>
      <point x="171" y="-12"/>
      <point x="211" y="29"/>
      <point x="211" y="78" type="curve" smooth="yes"/>
      <point x="211" y="126"/>
      <point x="171" y="167"/>
      <point x="122" y="167" type="curve" smooth="yes"/>
      <point x="73" y="167"/>
      <point x="33" y="126"/>
    </contour>
    <contour>
      <point x="33" y="449" type="curve" smooth="yes"/>
      <point x="33" y="400"/>
      <point x="73" y="359"/>
      <point x="122" y="359" type="curve" smooth="yes"/>
      <point x="171" y="359"/>
      <point x="211" y="400"/>
      <point x="211" y="449" type="curve" smooth="yes"/>
      <point x="211" y="497"/>
      <point x="171" y="538"/>
      <point x="122" y="538" type="curve" smooth="yes"/>
      <point x="73" y="538"/>
      <point x="33" y="497"/>
    </contour>
  </outline>
</glyph>
<glyph name="E" format="1">
  <advance width="521"/>
  <unicode hex="0045"/>
  <outline>
    <contour>
      <point x="70" y="0" type="line"/>
      <point x="212" y="0" type="line"/>
      <point x="212" y="690" type="line"/>
      <point x="70" y="690" type="line"/>
    </contour>
    <contour>
      <point x="135" y="0" type="line"/>
      <point x="476" y="0" type="line"/>
      <point x="476" y="132" type="line"/>
      <point x="135" y="132" type="line"/>
    </contour>
    <contour>
      <point x="135" y="286" type="line"/>
      <point x="432" y="286" type="line"/>
      <point x="432" y="411" type="line"/>
      <point x="135" y="411" type="line"/>
    </contour>
    <contour>
      <point x="135" y="558" type="line"/>
      <point x="472" y="558" type="line"/>
      <point x="472" y="690" type="line"/>
      <point x="135" y="690" type="line"/>
    </contour>
    <contour>
      <point x="271.0" y="690.0" type="move" name="top"/>
    </contour>
    <contour>
      <point x="380.0" y="0.0" type="move" name="ogonek"/>
    </contour>
    <contour>
      <point x="271.0" y="0.0" type="move" name="bottom"/>
    </contour>
  </outline>
</glyph>
<glyph name="L" format="1">
  <advance width="500"/>
  <unicode hex="004C"/>
  <outline>
    <contour>
      <point x="70" y="0" type="line"/>
      <point x="212" y="0" type="line"/>
      <point x="212" y="690" type="line"/>
      <point x="70" y="690" type="line"/>
    </contour>
    <contour>
      <point x="135" y="0" type="line"/>
      <point x="471" y="0" type="line"/>
      <point x="471" y="132" type="line"/>
      <point x="135" y="132" type="line"/>
    </contour>
    <contour>
      <point x="141.0" y="690.0" type="move" name="top"/>
    </contour>
    <contour>
      <point x="312.0" y="680.0" type="move" name="caron.alt"/>
    </contour>
    <contour>
      <point x="274.0" y="0.0" type="move" name="bottom"/>
    </contour>
  </outline>
</glyph>
<glyph name="Z" format="1">
  <advance width="546"/>
  <unicode hex="005A"/>
  <outline>
    <contour>
      <point x="46" y="99" type="line"/>
      <point x="141" y="0" type="line"/>
      <point x="492" y="591" type="line"/>
      <point x="397" y="690" type="line"/>
    </contour>
    <contour>
      <point x="46" y="0" type="line"/>
      <point x="501" y="0" type="line"/>
      <point x="501" y="127" type="line"/>
      <point x="97" y="127" type="line"/>
      <point x="46" y="99" type="line"/>
    </contour>
    <contour>
      <point x="54" y="563" type="line"/>
      <point x="443" y="563" type="line"/>
      <point x="492" y="591" type="line"/>
      <point x="492" y="690" type="line"/>
      <point x="54" y="690" type="line"/>
    </contour>
    <contour>
      <point x="273.0" y="690.0" type="move" name="top"/>
    </contour>
  </outline>
</glyph>
<glyph name="p" format="1">
  <advance width="517"/>
  <unicode hex="0070"/>
  <outline>
    <contour>
      <point x="48" y="525" type="line"/>
      <point x="54" y="476" type="line" smooth="yes"/>
      <point x="58" y="447"/>
      <point x="60" y="429"/>
      <point x="60" y="401" type="curve" smooth="yes"/>
      <point x="60" y="-200" type="line"/>
      <point x="197" y="-180" type="line"/>
      <point x="197" y="446" type="line"/>
      <point x="182" y="525" type="line"/>
    </contour>
    <contour>
      <point x="151" y="177" type="line"/>
      <point x="151" y="61"/>
      <point x="210" y="-12"/>
      <point x="301" y="-12" type="curve" smooth="yes"/>
      <point x="396" y="-12"/>
      <point x="488" y="84"/>
      <point x="488" y="276" type="curve" smooth="yes"/>
      <point x="488" y="443"/>
      <point x="411" y="537"/>
      <point x="317" y="537" type="curve" smooth="yes"/>
      <point x="262" y="537"/>
      <point x="217" y="507"/>
      <point x="185" y="468" type="curve"/>
      <point x="185" y="370" type="line"/>
      <point x="208" y="390"/>
      <point x="243" y="405"/>
      <point x="275" y="405" type="curve" smooth="yes"/>
      <point x="321" y="405"/>
      <point x="352" y="364"/>
      <point x="352" y="267" type="curve"/>
      <point x="352" y="158"/>
      <point x="316" y="110"/>
      <point x="269" y="110" type="curve" smooth="yes"/>
      <point x="222" y="110"/>
      <point x="197" y="146"/>
      <point x="197" y="192" type="curve"/>
    </contour>
  </outline>
</glyph>
<glyph name="cent" format="1">
  <advance width="500"/>
  <unicode hex="00A2"/>
  <outline>
    <contour>
      <point x="221.0" y="-100" type="line"/>
      <point x="351.0" y="-100" type="line"/>
      <point x="351.0" y="60" type="line"/>
      <point x="221.0" y="60" type="line"/>
    </contour>
    <contour>
      <point x="221.0" y="500" type="line"/>
      <point x="351.0" y="500" type="line"/>
      <point x="351.0" y="695" type="line"/>
      <point x="221.0" y="695" type="line"/>
    </contour>
    <contour>
      <point x="65.0" y="293" type="curve" smooth="yes"/>
      <point x="65.0" y="130"/>
      <point x="160.0" y="24"/>
      <point x="296.0" y="24" type="curve"/>
      <point x="363.0" y="24"/>
      <point x="419.0" y="44"/>
      <point x="454.0" y="71" type="curve"/>
      <point x="399.0" y="178" type="line"/>
      <point x="378.0" y="165"/>
      <point x="352.0" y="155"/>
      <point x="316.0" y="155" type="curve" smooth="yes"/>
      <point x="252.0" y="155"/>
      <point x="205.0" y="207"/>
      <point x="205.0" y="302" type="curve" smooth="yes"/>
      <point x="205.0" y="395"/>
      <point x="252.0" y="442"/>
      <point x="311.0" y="442" type="curve" smooth="yes"/>
      <point x="335.0" y="442"/>
      <point x="360.0" y="433"/>
      <point x="378.0" y="420" type="curve"/>
      <point x="433.0" y="533" type="line"/>
      <point x="395.0" y="557"/>
      <point x="354.0" y="573"/>
      <point x="302.0" y="573" type="curve" smooth="yes"/>
      <point x="164.0" y="573"/>
      <point x="65.0" y="464"/>
    </contour>
  </outline>
</glyph>
<glyph name="plusminus" format="1">
  <advance width="500"/>
  <unicode hex="00B1"/>
  <outline>
    <contour>
      <point x="43.0" y="54" type="line"/>
      <point x="457" y="54" type="line"/>
      <point x="457" y="186" type="line"/>
      <point x="43.0" y="186" type="line"/>
    </contour>
    <contour>
      <point x="43" y="274" type="line"/>
      <point x="457" y="274" type="line"/>
      <point x="457" y="406" type="line"/>
      <point x="43" y="406" type="line"/>
    </contour>
    <contour>
      <point x="186" y="54" type="line"/>
      <point x="314" y="54" type="line"/>
      <point x="314" y="523" type="line"/>
      <point x="186" y="523" type="line"/>
    </contour>
  </outline>
</glyph>
<glyph name="onesuperior" format="1">
  <advance width="370"/>
  <unicode hex="00B9"/>
  <outline>
    <contour>
      <point x="67" y="290" type="line"/>
      <point x="319" y="290" type="line"/>
      <point x="319" y="377" type="line"/>
      <point x="67" y="377" type="line"/>
    </contour>
    <contour>
      <point x="47" y="628" type="line"/>
      <point x="85" y="549" type="line"/>
      <point x="206" y="614" type="line"/>
      <point x="164" y="690" type="line"/>
    </contour>
    <contour>
      <point x="142" y="290" type="line"/>
      <point x="240" y="290" type="line"/>
      <point x="240" y="690" type="line"/>
      <point x="164" y="690" type="line"/>
      <point x="142" y="637" type="line"/>
    </contour>
  </outline>
</glyph>
<glyph name="questiondown" format="1">
  <advance width="437"/>
  <unicode hex="00BF"/>
  <outline>
    <contour>
      <point x="46" y="-15" type="curve" smooth="yes"/>
      <point x="46" y="-119"/>
      <point x="124" y="-197"/>
      <point x="240" y="-197" type="curve" smooth="yes"/>
      <point x="317" y="-197"/>
      <point x="395" y="-150"/>
      <point x="442" y="-90" type="curve"/>
      <point x="354" y="10" type="line"/>
      <point x="319.0" y="-32.1875"/>
      <point x="288.0" y="-50.0"/>
      <point x="255" y="-50" type="curve" smooth="yes"/>
      <point x="214.0" y="-50.0"/>
      <point x="191.0" y="-19.98412698412698"/>
      <point x="191" y="11" type="curve" smooth="yes"/>
      <point x="191.0" y="44.64705882352941"/>
      <point x="211.34375" y="67.07843137254902"/>
      <point x="253" y="115" type="curve" smooth="yes"/>
      <point x="289" y="155"/>
      <point x="299.2564102564103" y="196.5272727272727"/>
      <point x="294" y="233" type="curve"/>
      <point x="286" y="278" type="line"/>
      <point x="178" y="278" type="line"/>
      <point x="176" y="253" type="line" smooth="yes"/>
      <point x="174" y="232"/>
      <point x="170" y="207"/>
      <point x="145" y="179" type="curve" smooth="yes"/>
      <point x="95" y="123"/>
      <point x="46" y="65"/>
    </contour>
    <contour>
      <point x="139" y="449" type="curve" smooth="yes"/>
      <point x="139" y="401"/>
      <point x="179" y="360"/>
      <point x="228" y="360" type="curve" smooth="yes"/>
      <point x="277" y="360"/>
      <point x="317" y="401"/>
      <point x="317" y="449" type="curve" smooth="yes"/>
      <point x="317" y="498"/>
      <point x="277" y="539"/>
      <point x="228" y="539" type="curve" smooth="yes"/>
      <point x="179" y="539"/>
      <point x="139" y="498"/>
    </contour>
  </outline>
</glyph>
<glyph name="Ccedilla" format="1">
  <advance width="550"/>
  <unicode hex="00C7"/>
  <outline>
    <contour>
      <point x="36" y="347" type="curve" smooth="yes"/>
      <point x="36" y="104"/>
      <point x="160.91512915129152" y="-12.0"/>
      <point x="309" y="-12" type="curve" smooth="yes"/>
      <point x="399.153488372093" y="-12.0"/>
      <point x="464.1857142857143" y="22.0"/>
      <point x="522" y="76" type="curve"/>
      <point x="446" y="186" type="line"/>
      <point x="411.135593220339" y="152.0"/>
      <point x="370.2520325203252" y="130.0"/>
      <point x="325" y="130" type="curve" smooth="yes"/>
      <point x="245.90140845070422" y="130.0"/>
      <point x="181" y="207"/>
      <point x="181" y="340" type="curve" smooth="yes"/>
      <point x="181" y="483"/>
      <point x="245.0" y="562.0"/>
      <point x="322" y="562" type="curve" smooth="yes"/>
      <point x="368.0" y="562.0"/>
      <point x="407.0" y="542.0"/>
      <point x="443" y="512" type="curve"/>
      <point x="518" y="628" type="line"/>
      <point x="457.3717277486911" y="676.0"/>
      <point x="400" y="702"/>
      <point x="325" y="702" type="curve" smooth="yes"/>
      <point x="151" y="702"/>
      <point x="36" y="560"/>
    </contour>
    <contour>
      <point x="248.0" y="-227.0" type="line"/>
      <point x="270.0" y="-227.0" type="line" smooth="yes"/>
      <point x="369.0" y="-227.0"/>
      <point x="415.0" y="-184.0"/>
      <point x="415.0" y="-126.0" type="curve" smooth="yes"/>
      <point x="415.0" y="-89.0"/>
      <point x="394.0" y="-59.0"/>
      <point x="346.0" y="-49.0" type="curve"/>
      <point x="355.0" y="9.0" type="line"/>
      <point x="285.0" y="15.0" type="line"/>
      <point x="265.0" y="-96.0" type="line"/>
      <point x="280.0" y="-98.0" type="line"/>
      <point x="304.0" y="-101.75"/>
      <point x="316.0" y="-112.0625"/>
      <point x="316.0" y="-128.0" type="curve" smooth="yes"/>
      <point x="316.0" y="-147.83333333333334"/>
      <point x="300.0" y="-162.0"/>
      <point x="261.0" y="-162.0" type="curve"/>
    </contour>
  </outline>
</glyph>
<glyph name="multiply" format="1">
  <advance width="500"/>
  <unicode hex="00D7"/>
  <outline>
    <contour>
      <point x="37.0" y="436" type="line"/>
      <point x="367.0" y="51" type="line"/>
      <point x="463.0" y="144" type="line"/>
      <point x="133.0" y="529" type="line"/>
    </contour>
    <contour>
      <point x="37.0" y="144" type="line"/>
      <point x="133.0" y="51" type="line"/>
      <point x="463.0" y="436" type="line"/>
      <point x="367.0" y="529" type="line"/>
    </contour>
  </outline>
</glyph>
<glyph name="ccedilla" format="1">
  <advance width="416"/>
  <unicode hex="00E7"/>
  <outline>
    <contour>
      <point x="29" y="257" type="curve" smooth="yes"/>
      <point x="29" y="94"/>
      <point x="124" y="-12"/>
      <point x="266" y="-12" type="curve" smooth="yes"/>
      <point x="318" y="-12"/>
      <point x="359" y="4"/>
      <point x="397" y="28" type="curve"/>
      <point x="342" y="141" type="line"/>
      <point x="324" y="128"/>
      <point x="299" y="119"/>
      <point x="275" y="119" type="curve" smooth="yes"/>
      <point x="216" y="119"/>
      <point x="169" y="171"/>
      <point x="169" y="266" type="curve" smooth="yes"/>
      <point x="169" y="359"/>
      <point x="216" y="406"/>
      <point x="275" y="406" type="curve" smooth="yes"/>
      <point x="299" y="406"/>
      <point x="324" y="397"/>
      <point x="342" y="384" type="curve"/>
      <point x="397" y="497" type="line"/>
      <point x="359" y="521"/>
      <point x="318" y="537"/>
      <point x="266" y="537" type="curve" smooth="yes"/>
      <point x="128" y="537"/>
      <point x="29" y="428"/>
    </contour>
    <contour>
      <point x="173.0" y="-227.0" type="line"/>
      <point x="195.0" y="-227.0" type="line" smooth="yes"/>
      <point x="294.0" y="-227.0"/>
      <point x="340.0" y="-184.0"/>
      <point x="340.0" y="-126.0" type="curve" smooth="yes"/>
      <point x="340.0" y="-89.0"/>
      <point x="319.0" y="-59.0"/>
      <point x="271.0" y="-49.0" type="curve"/>
      <point x="280.0" y="9.0" type="line"/>
      <point x="210.0" y="15.0" type="line"/>
      <point x="190.0" y="-96.0" type="line"/>
      <point x="205.0" y="-98.0" type="line"/>
      <point x="229.0" y="-101.75"/>
      <point x="241.0" y="-112.0625"/>
      <point x="241.0" y="-128.0" type="curve" smooth="yes"/>
      <point x="241.0" y="-147.83333333333334"/>
      <point x="225.0" y="-162.0"/>
      <point x="186.0" y="-162.0" type="curve"/>
    </contour>
  </outline>
</glyph>
<glyph name="Hbar" format="1">
  <advance width="644"/>
  <unicode hex="0126"/>
  <outline>
    <contour>
      <point x="74" y="0" type="line"/>
      <point x="216" y="0" type="line"/>
      <point x="216" y="690" type="line"/>
      <point x="74" y="690" type="line"/>
    </contour>
    <contour>
      <point x="139" y="274" type="line"/>
      <point x="505" y="274" type="line"/>
      <point x="505" y="406" type="line"/>
      <point x="139" y="406" type="line"/>
    </contour>
    <contour>
      <point x="428" y="0" type="line"/>
      <point x="570" y="0" type="line"/>
      <point x="570" y="690" type="line"/>
      <point x="428" y="690" type="line"/>
    </contour>
    <contour>
      <point x="25" y="509" type="line"/>
      <point x="619" y="509" type="line"/>
      <point x="619" y="625" type="line"/>
      <point x="25" y="625" type="line"/>
    </contour>
  </outline>
</glyph>
<glyph name="scedilla" format="1">
  <advance width="404"/>
  <unicode hex="015F"/>
  <outline>
    <contour>
      <point x="18" y="30" type="line"/>
      <point x="61.0" y="6.899999999999999"/>
      <point x="116.78048780487805" y="-12.0"/>
      <point x="180" y="-12" type="curve" smooth="yes"/>
      <point x="306.2437810945273" y="-12.0"/>
      <point x="381.99004975124376" y="52.0"/>
      <point x="383" y="161" type="curve" smooth="yes"/>
      <point x="384" y="241"/>
      <point x="334.2781954887218" y="287.0"/>
      <point x="248" y="321" type="curve" smooth="yes"/>
      <point x="179.0" y="347.25"/>
      <point x="168" y="362"/>
      <point x="168" y="381" type="curve" smooth="yes"/>
      <point x="168" y="401"/>
      <point x="191" y="417"/>
      <point x="227" y="417" type="curve" smooth="yes"/>
      <point x="257" y="417"/>
      <point x="299.48148148148147" y="403.30555555555554"/>
      <point x="330" y="388" type="curve"/>
      <point x="371" y="503" type="line"/>
      <point x="329.13157894736844" y="522.25"/>
      <point x="278" y="537"/>
      <point x="223" y="537" type="curve" smooth="yes"/>
      <point x="95" y="537"/>
      <point x="25" y="463"/>
      <point x="25" y="378" type="curve" smooth="yes"/>
      <point x="25.0" y="299.0"/>
      <point x="61" y="257"/>
      <point x="160" y="214" type="curve" smooth="yes"/>
      <point x="227" y="185"/>
      <point x="238.0" y="172.0"/>
      <point x="238" y="152" type="curve" smooth="yes"/>
      <point x="238.0" y="129.0"/>
      <point x="221.0" y="109.0"/>
      <point x="177" y="109" type="curve" smooth="yes"/>
      <point x="136.672131147541" y="109.0"/>
      <point x="90.44262295081967" y="125.91428571428571"/>
      <point x="57" y="146" type="curve"/>
    </contour>
    <contour>
      <point x="112.0" y="-227.0" type="line"/>
      <point x="134.0" y="-227.0" type="line" smooth="yes"/>
      <point x="233.0" y="-227.0"/>
      <point x="279.0" y="-184.0"/>
      <point x="279.0" y="-126.0" type="curve" smooth="yes"/>
      <point x="279.0" y="-89.0"/>
      <point x="258.0" y="-59.0"/>
      <point x="210.0" y="-49.0" type="curve"/>
      <point x="219.0" y="9.0" type="line"/>
      <point x="149.0" y="15.0" type="line"/>
      <point x="129.0" y="-96.0" type="line"/>
      <point x="144.0" y="-98.0" type="line"/>
      <point x="168.0" y="-101.75"/>
      <point x="180.0" y="-112.0625"/>
      <point x="180.0" y="-128.0" type="curve" smooth="yes"/>
      <point x="180.0" y="-147.83333333333334"/>
      <point x="164.0" y="-162.0"/>
      <point x="125.0" y="-162.0" type="curve"/>
    </contour>
  </outline>
</glyph>
<glyph name="Tcedilla" format="1">
  <advance width="493"/>
  <unicode hex="0162"/>
  <outline>
    <contour>
      <point x="20" y="558" type="line"/>
      <point x="473" y="558" type="line"/>
      <point x="473" y="690" type="line"/>
      <point x="20" y="690" type="line"/>
    </contour>
    <contour>
      <point x="176" y="0" type="line"/>
      <point x="318" y="0" type="line"/>
      <point x="318" y="690" type="line"/>
      <point x="176" y="690" type="line"/>
    </contour>
    <contour>
      <point x="177.0" y="-227.0" type="line"/>
      <point x="199.0" y="-227.0" type="line" smooth="yes"/>
      <point x="298.0" y="-227.0"/>
      <point x="344.0" y="-184.0"/>
      <point x="344.0" y="-126.0" type="curve" smooth="yes"/>
      <point x="344.0" y="-89.0"/>
      <point x="323.0" y="-59.0"/>
      <point x="275.0" y="-49.0" type="curve"/>
      <point x="284.0" y="9.0" type="line"/>
      <point x="214.0" y="15.0" type="line"/>
      <point x="194.0" y="-96.0" type="line"/>
      <point x="209.0" y="-98.0" type="line"/>
      <point x="233.0" y="-101.75"/>
      <point x="245.0" y="-112.0625"/>
      <point x="245.0" y="-128.0" type="curve" smooth="yes"/>
      <point x="245.0" y="-147.83333333333334"/>
      <point x="229.0" y="-162.0"/>
      <point x="190.0" y="-162.0" type="curve"/>
    </contour>
  </outline>
</glyph>
<glyph name="tcedilla" format="1">
  <advance width="370"/>
  <unicode hex="0163"/>
  <outline>
    <contour>
      <point x="12" y="413" type="line"/>
      <point x="339" y="413" type="line"/>
      <point x="339" y="525" type="line"/>
      <point x="12" y="525" type="line"/>
    </contour>
    <contour>
      <point x="87" y="175" type="line"/>
      <point x="87" y="42"/>
      <point x="146" y="-12"/>
      <point x="246" y="-12" type="curve"/>
      <point x="281" y="-12"/>
      <point x="316.0" y="-4.0"/>
      <point x="344" y="8" type="curve"/>
      <point x="330" y="132" type="line"/>
      <point x="313.0" y="127.0"/>
      <point x="296.0" y="124.0"/>
      <point x="282" y="124" type="curve" smooth="yes"/>
      <point x="244.0" y="124.0"/>
      <point x="224.0" y="144.25"/>
      <point x="224" y="205" type="curve" smooth="yes"/>
      <point x="224" y="662" type="line"/>
      <point x="87" y="642" type="line"/>
    </contour>
    <contour>
      <point x="133.0" y="-227.0" type="line"/>
      <point x="155.0" y="-227.0" type="line" smooth="yes"/>
      <point x="254.0" y="-227.0"/>
      <point x="300.0" y="-184.0"/>
      <point x="300.0" y="-126.0" type="curve" smooth="yes"/>
      <point x="300.0" y="-89.0"/>
      <point x="279.0" y="-59.0"/>
      <point x="231.0" y="-49.0" type="curve"/>
      <point x="240.0" y="9.0" type="line"/>
      <point x="170.0" y="15.0" type="line"/>
      <point x="150.0" y="-96.0" type="line"/>
      <point x="165.0" y="-98.0" type="line"/>
      <point x="189.0" y="-101.75"/>
      <point x="201.0" y="-112.0625"/>
      <point x="201.0" y="-128.0" type="curve" smooth="yes"/>
      <point x="201.0" y="-147.83333333333334"/>
      <point x="185.0" y="-162.0"/>
      <point x="146.0" y="-162.0" type="curve"/>
    </contour>
  </outline>
</glyph>
<glyph name="ipa:schwa" format="1">
  <advance width="476"/>
  <unicode hex="0259"/>
  <outline>
    <contour>
      <point x="31" y="252" type="curve" smooth="yes"/>
      <point x="31" y="80"/>
      <point x="107" y="-10"/>
      <point x="227" y="-10" type="curve" smooth="yes"/>
      <point x="356" y="-10"/>
      <point x="448" y="92"/>
      <point x="448" y="270" type="curve" smooth="yes"/>
      <point x="448" y="429"/>
      <point x="364" y="539"/>
      <point x="209" y="539" type="curve" smooth="yes"/>
      <point x="145" y="539"/>
      <point x="94" y="518"/>
      <point x="52" y="495" type="curve"/>
      <point x="96" y="389" type="line"/>
      <point x="120" y="403"/>
      <point x="160" y="416"/>
      <point x="189" y="416" type="curve" smooth="yes"/>
      <point x="276" y="416"/>
      <point x="316" y="373"/>
      <point x="316" y="264" type="curve" smooth="yes"/>
      <point x="316" y="139"/>
      <point x="273" y="106"/>
      <point x="228" y="106" type="curve" smooth="yes"/>
      <point x="185" y="106"/>
      <point x="155" y="140"/>
      <point x="155" y="245" type="curve"/>
      <point x="134" y="213" type="line"/>
      <point x="353" y="213" type="line"/>
      <point x="353" y="310" type="line"/>
      <point x="36" y="310" type="line"/>
      <point x="34" y="298"/>
      <point x="31" y="276"/>
    </contour>
  </outline>
</glyph>
<glyph name="breve" format="1">
  <advance width="500"/>
  <unicode hex="02D8"/>
  <outline>
    <contour>
      <point x="122.0" y="751" type="line"/>
      <point x="122.0" y="655.0745341614906"/>
      <point x="171.0" y="595"/>
      <point x="250.0" y="595" type="curve" smooth="yes"/>
      <point x="329.0" y="595"/>
      <point x="378.0" y="654.1055900621118"/>
      <point x="378.0" y="751" type="curve"/>
      <point x="299.0" y="751" type="line"/>
      <point x="295.3703703703704" y="712.0"/>
      <point x="278.1296296296296" y="687.0"/>
      <point x="250.0" y="687" type="curve" smooth="yes"/>
      <point x="221.87037037037038" y="687.0"/>
      <point x="204.62962962962962" y="712.0"/>
      <point x="201.0" y="751" type="curve"/>
    </contour>
    <contour>
      <point x="250.0" y="526.0" type="move" name="_top"/>
    </contour>
  </outline>
</glyph>
<glyph name="quoteright" format="1">
  <advance width="244"/>
  <unicode hex="2019"/>
  <outline>
    <contour>
      <point x="52" y="380" type="line"/>
      <point x="132" y="380" type="line"/>
      <point x="177" y="514" type="line" smooth="yes"/>
      <point x="196" y="570"/>
      <point x="211" y="606"/>
      <point x="211" y="642" type="curve" smooth="yes"/>
      <point x="211" y="696"/>
      <point x="171" y="732"/>
      <point x="121" y="732" type="curve" smooth="yes"/>
      <point x="73" y="732"/>
      <point x="33" y="691"/>
      <point x="33" y="643" type="curve" smooth="yes"/>
      <point x="33" y="604"/>
      <point x="61" y="570"/>
      <point x="92" y="558" type="curve"/>
    </contour>
  </outline>
</glyph>
<glyph name="litre" format="1">
  <advance width="420"/>
  <unicode hex="2113"/>
  <outline>
    <contour>
      <point x="80" y="185" type="line"/>
      <point x="80" y="52"/>
      <point x="139" y="-12"/>
      <point x="241" y="-12" type="curve" smooth="yes"/>
      <point x="274" y="-12"/>
      <point x="309" y="-4"/>
      <point x="337" y="8" type="curve"/>
      <point x="323" y="138" type="line"/>
      <point x="305.0" y="130.0"/>
      <point x="286.0" y="125.0"/>
      <point x="271" y="125" type="curve" smooth="yes"/>
      <point x="236.0" y="125.0"/>
      <point x="217.0" y="145.0"/>
      <point x="217" y="205" type="curve" smooth="yes"/>
      <point x="217" y="533" type="line" smooth="yes"/>
      <point x="217.0" y="575.8266666666667"/>
      <point x="227" y="606"/>
      <point x="246" y="606" type="curve"/>
      <point x="266" y="606"/>
      <point x="279" y="571"/>
      <point x="279" y="528" type="curve" smooth="yes"/>
      <point x="279" y="381"/>
      <point x="149" y="305"/>
      <point x="13" y="259" type="curve"/>
      <point x="48" y="150" type="line"/>
      <point x="207" y="196"/>
      <point x="413" y="305"/>
      <point x="413" y="538" type="curve" smooth="yes"/>
      <point x="413" y="658"/>
      <point x="348" y="732"/>
      <point x="247" y="732" type="curve" smooth="yes"/>
      <point x="138" y="732"/>
      <point x="80.0" y="649.0"/>
      <point x="80" y="538" type="curve" smooth="yes"/>
    </contour>
  </outline>
</glyph>
<glyph name="numero" format="1">
  <advance width="965"/>
  <unicode hex="2116"/>
  <outline>
    <contour>
      <point x="631" y="490" type="curve"/>
      <point x="631" y="339"/>
      <point x="693" y="279"/>
      <point x="781" y="279" type="curve" smooth="yes"/>
      <point x="867" y="279"/>
      <point x="929" y="339"/>
      <point x="929" y="490" type="curve"/>
      <point x="929" y="643"/>
      <point x="867" y="703"/>
      <point x="781" y="703" type="curve" smooth="yes"/>
      <point x="693" y="703"/>
      <point x="631" y="643"/>
    </contour>
    <contour>
      <point x="734" y="490" type="curve" smooth="yes"/>
      <point x="734" y="579"/>
      <point x="753" y="604"/>
      <point x="781" y="604" type="curve" smooth="yes"/>
      <point x="808" y="604"/>
      <point x="827" y="579"/>
      <point x="827" y="490" type="curve" smooth="yes"/>
      <point x="827" y="403"/>
      <point x="808" y="378"/>
      <point x="781" y="378" type="curve" smooth="yes"/>
      <point x="753" y="378"/>
      <point x="734" y="403"/>
    </contour>
    <contour>
      <point x="645" y="86" type="line"/>
      <point x="916" y="86" type="line"/>
      <point x="916" y="200" type="line"/>
      <point x="645" y="200" type="line"/>
    </contour>
    <contour>
      <point x="70" y="0" type="line"/>
      <point x="196" y="0" type="line"/>
      <point x="196" y="690" type="line"/>
      <point x="70" y="690" type="line"/>
    </contour>
    <contour>
      <point x="108" y="690" type="line"/>
      <point x="411" y="0" type="line"/>
      <point x="542" y="0" type="line"/>
      <point x="239" y="690" type="line"/>
    </contour>
    <contour>
      <point x="443" y="0" type="line"/>
      <point x="569" y="0" type="line"/>
      <point x="569" y="690" type="line"/>
      <point x="443" y="690" type="line"/>
    </contour>
  </outline>
</glyph>
<glyph name="approxequal" format="1">
  <advance width="500"/>
  <unicode hex="2248"/>
  <outline>
    <contour>
      <point x="114.0" y="80" type="line"/>
      <point x="131.0958904109589" y="100.0"/>
      <point x="161.0" y="119"/>
      <point x="192.0" y="119" type="curve" smooth="yes"/>
      <point x="247.0" y="119"/>
      <point x="266.5945945945946" y="81.0"/>
      <point x="330.0" y="81" type="curve" smooth="yes"/>
      <point x="382.0" y="81.0"/>
      <point x="426.0" y="119.5"/>
      <point x="460.0" y="158" type="curve"/>
      <point x="386.0" y="255" type="line"/>
      <point x="368.9041095890411" y="235.0"/>
      <point x="339.0" y="216"/>
      <point x="308.0" y="216" type="curve" smooth="yes"/>
      <point x="253.0" y="216"/>
      <point x="233.69230769230768" y="254.0"/>
      <point x="170.0" y="254" type="curve" smooth="yes"/>
      <point x="118.0" y="254.0"/>
      <point x="74.0" y="215.53086419753086"/>
      <point x="40.0" y="178" type="curve"/>
    </contour>
    <contour>
      <point x="114.0" y="325" type="line"/>
      <point x="131.0958904109589" y="345.0"/>
      <point x="161.0" y="364"/>
      <point x="192.0" y="364" type="curve" smooth="yes"/>
      <point x="247.0" y="364"/>
      <point x="266.5945945945946" y="326.0"/>
      <point x="330.0" y="326" type="curve" smooth="yes"/>
      <point x="382.0" y="326.0"/>
      <point x="426.0" y="364.46913580246917"/>
      <point x="460.0" y="402" type="curve"/>
      <point x="386.0" y="500" type="line"/>
      <point x="368.9041095890411" y="480.0"/>
      <point x="339.0" y="461"/>
      <point x="308.0" y="461" type="curve" smooth="yes"/>
      <point x="253.0" y="461"/>
      <point x="233.69230769230768" y="499.0"/>
      <point x="170.0" y="499" type="curve" smooth="yes"/>
      <point x="118.0" y="499.0"/>
      <point x="74.0" y="460.5"/>
      <point x="40.0" y="422" type="curve"/>
    </contour>
  </outline>
</glyph>
<glyph name=".notdef" format="1">
  <advance width="500"/>
  <outline>
    <contour>
      <point x="60" y="-185" type="line"/>
      <point x="184.0" y="-185" type="line"/>
      <point x="184.0" y="690" type="line"/>
      <point x="60" y="690" type="line"/>
    </contour>
    <contour>
      <point x="120" y="-185" type="line"/>
      <point x="380" y="-185" type="line"/>
      <point x="380" y="-72" type="line"/>
      <point x="120" y="-72" type="line"/>
    </contour>
    <contour>
      <point x="120" y="577" type="line"/>
      <point x="380" y="577" type="line"/>
      <point x="380" y="690" type="line"/>
      <point x="120" y="690" type="line"/>
    </contour>
    <contour>
      <point x="316" y="-185" type="line"/>
      <point x="440.0" y="-185" type="line"/>
      <point x="440.0" y="690" type="line"/>
      <point x="316" y="690" type="line"/>
    </contour>
  </outline>
</glyph>
<glyph name="macron.cap" format="1">
  <advance width="500"/>
  <outline>
    <contour>
      <point x="103.0" y="773" type="line"/>
      <point x="397.0" y="773" type="line"/>
      <point x="397.0" y="884" type="line"/>
      <point x="103.0" y="884" type="line"/>
    </contour>
    <contour>
      <point x="250.0" y="690.0" type="move" name="_top"/>
    </contour>
  </outline>
</glyph>
<glyph name="ring_acute" format="1">
  <advance width="500"/>
  <outline>
    <component base="ring" xOffset="-2.0"/>
    <component base="acute" xOffset="-2" yOffset="269"/>
    <contour>
      <point x="250.0" y="526.0" type="move" name="_top"/>
    </contour>
  </outline>
</glyph>
<glyph name="tilde.cap" format="1">
  <advance width="500"/>
  <outline>
    <contour>
      <point x="104.0" y="761" type="curve"/>
      <point x="170.0" y="761" type="line"/>
      <point x="174.0" y="791.0"/>
      <point x="188.0" y="799"/>
      <point x="200.0" y="799" type="curve"/>
      <point x="228.0" y="799"/>
      <point x="259.0" y="756"/>
      <point x="306.0" y="756" type="curve"/>
      <point x="357.0" y="756"/>
      <point x="395.0" y="811"/>
      <point x="395.0" y="892" type="curve"/>
      <point x="330.0" y="892" type="line"/>
      <point x="326.0" y="863.0"/>
      <point x="312.0" y="854"/>
      <point x="300.0" y="854" type="curve"/>
      <point x="272.0" y="854"/>
      <point x="241.0" y="897"/>
      <point x="194.0" y="897" type="curve"/>
      <point x="143.0" y="897"/>
      <point x="104.0" y="846"/>
    </contour>
    <contour>
      <point x="250.0" y="690.0" type="move" name="_top"/>
    </contour>
  </outline>
</glyph>
